<?xml version="1.0" encoding="UTF-8" standalone="no"?>
<!-- Created with Inkscape (http://www.inkscape.org/) -->

<svg
   xmlns:dc="http://purl.org/dc/elements/1.1/"
   xmlns:cc="http://creativecommons.org/ns#"
   xmlns:rdf="http://www.w3.org/1999/02/22-rdf-syntax-ns#"
   xmlns:svg="http://www.w3.org/2000/svg"
   xmlns="http://www.w3.org/2000/svg"
   xmlns:sodipodi="http://sodipodi.sourceforge.net/DTD/sodipodi-0.dtd"
   xmlns:inkscape="http://www.inkscape.org/namespaces/inkscape"
   width="43.937347mm"
   height="50.810162mm"
   viewBox="0 0 43.937347 50.810162"
   version="1.1"
   id="svg8"
   sodipodi:docname="specio.svg"
   inkscape:version="0.92.4 (5da689c313, 2019-01-14)">
  <defs
     id="defs2" />
  <sodipodi:namedview
     id="base"
     pagecolor="#ffffff"
     bordercolor="#666666"
     borderopacity="1.0"
     inkscape:pageopacity="0.0"
     inkscape:pageshadow="2"
     inkscape:zoom="4"
     inkscape:cx="65.869814"
     inkscape:cy="83.406763"
     inkscape:document-units="mm"
     inkscape:current-layer="layer1"
     showgrid="false"
     showguides="true"
     inkscape:window-width="1920"
     inkscape:window-height="986"
     inkscape:window-x="-11"
     inkscape:window-y="-11"
     inkscape:window-maximized="1">
    <inkscape:grid
       type="xygrid"
       id="grid4539"
       originx="-176.46883"
       originy="-173.54431" />
    <sodipodi:guide
       position="23.720171,-0.066817383"
       orientation="0,1500"
       id="guide4567"
       inkscape:locked="false" />
    <sodipodi:guide
       position="220.40617,-173.54431"
       orientation="-1500,0"
       id="guide4569"
       inkscape:locked="false" />
    <sodipodi:guide
       position="220.40617,223.3307"
       orientation="0,-1500"
       id="guide4571"
       inkscape:locked="false" />
    <sodipodi:guide
       position="-176.46884,223.3307"
       orientation="1500,0"
       id="guide4573"
       inkscape:locked="false" />
    <sodipodi:guide
       position="-176.46884,223.3307"
       orientation="1500,0"
       id="guide4583"
       inkscape:locked="false" />
    <sodipodi:guide
       position="21.968672,24.893195"
       orientation="0,750"
       id="guide4585"
       inkscape:locked="false" />
    <sodipodi:guide
       position="21.968672,-173.54432"
       orientation="-1500,0"
       id="guide4587"
       inkscape:locked="false" />
    <sodipodi:guide
       position="20.312485,50.781211"
       orientation="0,-750"
       id="guide4589"
       inkscape:locked="false" />
    <sodipodi:guide
       position="-176.46884,223.3307"
       orientation="749.99999,0"
       id="guide4593"
       inkscape:locked="false" />
    <sodipodi:guide
       position="-176.46884,24.893195"
       orientation="0,1500"
       id="guide4595"
       inkscape:locked="false" />
    <sodipodi:guide
       position="220.40618,24.893195"
       orientation="-749.99999,0"
       id="guide4597"
       inkscape:locked="false" />
    <sodipodi:guide
       position="21.968672,24.893195"
       orientation="0,-1500"
       id="guide4599"
       inkscape:locked="false" />
  </sodipodi:namedview>
  <metadata
     id="metadata5">
    <rdf:RDF>
      <cc:Work
         rdf:about="">
        <dc:format>image/svg+xml</dc:format>
        <dc:type
           rdf:resource="http://purl.org/dc/dcmitype/StillImage" />
        <dc:title></dc:title>
      </cc:Work>
    </rdf:RDF>
  </metadata>
  <g
     inkscape:label="Layer 1"
     inkscape:groupmode="layer"
     id="layer1"
     transform="translate(-70.257519,-119.85456)">
    <path
       inkscape:connector-curvature="0"
       id="path4605"
       d="m 159.96681,28.756986 67.37425,38.96172 v 38.889304 38.8893 H 92.637947 -42.065173 l -0.25947,-23.90699 c -0.14272,-13.14884 -0.20567,-30.695094 -0.13989,-38.991654 l 0.11959,-15.08465 67.42412,-38.87144 c 37.08325,-21.379313 67.44418,-38.866023 67.46873,-38.859383 0.0246,0.007 30.363063,17.54484 67.418903,38.973793 z"
       style="fill:#003b73;fill-opacity:0;stroke-width:0.37797621" />
    <path
       style="fill:#003b73;fill-opacity:0;stroke-width:1.42857146"
       d="m 238.46911,601.34605 0.0586,-147.5 253.6055,-147.14286 C 631.61627,225.77462 746.5006,159.39416 747.43176,159.19107 c 0.93116,-0.2031 116.44301,66.34278 256.69304,147.87974 l 255,148.24898 0.3638,146.76313 0.3639,146.76313 H 749.13147 238.41049 Z"
       id="path4607"
       inkscape:connector-curvature="0"
       transform="matrix(0.26458333,0,0,0.26458333,-106.21131,-52.665966)" />
    <path
       style="fill:#003b73;fill-opacity:0;stroke-width:1.42857146"
       d="m 238.46911,601.34605 0.0586,-147.5 253.6055,-147.14286 C 631.61627,225.77462 746.5006,159.39416 747.43176,159.19107 c 0.93116,-0.2031 116.44301,66.34278 256.69304,147.87974 l 255,148.24898 0.3638,146.76313 0.3639,146.76313 H 749.13147 238.41049 Z"
       id="path4609"
       inkscape:connector-curvature="0"
       transform="matrix(0.26458333,0,0,0.26458333,-106.21131,-52.665966)" />
    <path
       sodipodi:type="star"
       style="fill:#f9bb0e;fill-opacity:1;stroke:#f3ea13;stroke-width:0.26458332;stroke-opacity:1"
       id="path4662"
       sodipodi:sides="6"
       sodipodi:cx="92.226189"
       sodipodi:cy="142.86069"
       sodipodi:r1="7.1576509"
       sodipodi:r2="6.1987076"
       sodipodi:arg1="2.6179939"
       sodipodi:arg2="3.1415927"
       inkscape:flatsided="true"
       inkscape:rounded="0"
       inkscape:randomized="0"
       d="m 86.027481,146.43951 0,-7.15765 6.198708,-3.57882 6.198707,3.57882 0,7.15765 -6.198707,3.57883 z"
       transform="matrix(3.4700169,0,0,3.4751931,-227.80024,-351.20883)" />
    <g
       id="g1994">
      <g
         style="fill:#f3ea13;fill-opacity:1;stroke:#f3ea13;stroke-opacity:1"
         transform="translate(-8.5336426,-5.8035444)"
         id="g1496">
        <path
           sodipodi:nodetypes="cccccsccccccccccccccccccccscccccccccccccccsccccsccccssscccccccccccccccccccccccsccccccsccccccccccccccccccsccssccccccccccccccscccc"
           inkscape:connector-curvature="0"
           id="path1498-5"
           d="m 92.154035,171.00741 c -8.105403,-4.20861 -4.444983,-2.72699 -5.581026,-5.47054 -0.108128,-0.5687 -0.255436,-1.50092 -0.26098,-2.72537 -0.005,-1.10325 0.01164,-1.24785 0.174155,-1.51416 0.09882,-0.16193 0.208337,-0.38905 0.243364,-0.50471 0.04441,-0.14665 0.182283,-0.38766 0.36016,-0.65013 0.284546,-0.41986 0.671462,-0.89463 0.941922,-1.12582 0.237483,-0.20301 0.646777,-0.55937 0.909545,-0.79191 0.262766,-0.23255 0.610246,-0.47177 0.772176,-0.5316 0.562785,-0.20794 1.474442,-0.6893 1.867574,-0.98608 0.308763,-0.23309 0.520878,-0.31721 0.967375,-0.38362 0.369593,-0.055 0.716015,-0.17275 0.979309,-0.33294 0.528551,-0.32159 0.945169,-0.41316 2.326476,-0.51136 1.150065,-0.0818 4.539865,-0.18756 5.377385,-0.16785 0.63758,0.015 2.01239,0.25624 2.34407,0.41129 0.21568,0.10082 0.40161,0.11473 0.8412,0.0629 0.31038,-0.0366 0.98072,-0.0714 1.48964,-0.0774 1.23364,-0.0145 2.37529,-0.12819 2.46912,-0.2458 0.0418,-0.0525 0.10338,-0.35785 0.13673,-0.67866 0.0333,-0.3208 0.15145,-0.92646 0.26245,-1.34591 0.11101,-0.41945 0.22458,-1.04654 0.25238,-1.39354 0.0278,-0.34699 0.13195,-0.87694 0.23144,-1.17767 0.19371,-0.5855 0.2107,-1.07799 0.0962,-2.78946 -0.0494,-0.739 -0.0345,-0.97351 0.085,-1.33316 0.0996,-0.29977 0.1328,-0.59842 0.10612,-0.95387 -0.0238,-0.31666 0.005,-0.64399 0.0746,-0.84349 0.0624,-0.17931 0.11345,-0.49275 0.11345,-0.69653 0,-0.20588 0.0934,-0.5925 0.2103,-0.87015 0.26016,-0.6181 0.27108,-1.18609 0.0343,-1.78442 -0.18581,-0.46955 -0.17939,-0.5746 0.10693,-1.7486 0.0508,-0.2082 0.11074,-0.48561 0.13326,-0.61646 0.0245,-0.14207 0.11991,-0.2739 0.23695,-0.32723 0.33934,-0.15461 0.6422,0.0543 1.23607,0.85252 l 0.54949,0.73861 0.65451,0.0495 c 0.35997,0.0272 0.72076,0.014 0.80174,-0.0293 0.22623,-0.12107 0.47006,-0.0948 0.83126,0.0894 0.73316,0.37402 1.20713,0.091 1.51459,-0.90448 0.18989,-0.61478 0.443,-1.07288 0.63309,-1.14582 0.51555,-0.19784 1.02927,0.42044 1.14175,1.37416 0.0357,0.30248 0.10825,0.77708 0.16128,1.05467 0.12511,0.65496 0.057,1.35488 -0.15451,1.58752 -0.30423,0.33461 -0.33659,0.48603 -0.26295,1.23049 0.0389,0.39326 0.1103,0.84986 0.15866,1.01465 0.0484,0.1648 0.12386,0.61906 0.16777,1.00944 0.0439,0.39039 0.14298,0.99371 0.22016,1.34071 0.18202,0.8183 0.12264,1.90239 -0.12741,2.32621 -0.0945,0.16011 -0.17176,0.34724 -0.17176,0.41583 0,0.0686 -0.0832,0.2841 -0.18485,0.47888 -0.19803,0.37941 -0.2677,0.78609 -0.40659,2.37303 -0.12264,1.40139 -0.11502,5.99794 0.0121,7.26506 0.0807,0.80521 0.082,1.14841 0.005,1.51921 -0.0544,0.26346 -0.0989,0.61228 -0.0989,0.77516 0,0.16287 -0.15004,0.79649 -0.33343,1.40804 -0.18339,0.61155 -0.35701,1.252 -0.38581,1.42325 -0.0288,0.17124 -0.12139,0.51954 -0.20576,0.77399 -0.0844,0.25448 -0.18066,0.61409 -0.214,0.79915 -0.067,0.37175 -0.18614,0.56954 -0.30056,0.49883 -0.12384,-0.0765 -0.0845,-0.55267 0.0969,-1.17361 0.0944,-0.32286 0.22412,-0.82006 0.28838,-1.1049 0.0643,-0.28484 0.23828,-0.90943 0.3867,-1.38797 0.14842,-0.47855 0.31066,-1.17292 0.36053,-1.54305 0.102,-0.75683 0.0918,-2.26654 -0.0184,-2.72559 -0.0946,-0.39417 -0.0454,-5.40299 0.0653,-6.65375 0.15505,-1.75085 0.18827,-1.97329 0.34723,-2.32503 0.0865,-0.19153 0.18428,-0.45651 0.21719,-0.58884 0.0329,-0.13234 0.12814,-0.33525 0.21162,-0.45091 0.23224,-0.32179 0.28518,-1.18305 0.11891,-1.93475 -0.0767,-0.347 -0.17506,-0.94638 -0.21848,-1.33194 -0.0434,-0.38558 -0.13218,-0.91552 -0.19724,-1.17767 -0.0651,-0.26216 -0.14277,-0.80553 -0.17268,-1.20748 -0.0568,-0.76365 -0.0216,-0.90346 0.33208,-1.31611 0.14202,-0.16574 0.16448,-0.29606 0.14414,-0.83629 -0.0132,-0.35198 -0.0562,-0.68002 -0.0955,-0.729 -0.0393,-0.049 -0.0871,-0.33508 -0.1063,-0.63581 -0.0369,-0.57814 -0.33653,-1.20042 -0.55718,-1.15719 -0.14167,0.0277 -0.3766,0.47901 -0.57364,1.10184 -0.0927,0.29317 -0.2678,0.60709 -0.43389,0.77811 -0.2494,0.25679 -0.32604,0.28667 -0.73533,0.28667 -0.2513,0 -0.60901,-0.0609 -0.79491,-0.13524 -0.18591,-0.0744 -0.40312,-0.11026 -0.4827,-0.0797 -0.0796,0.0305 -0.53485,0.0294 -1.01171,-0.003 l -0.86701,-0.0581 -0.31335,-0.40579 c -0.17234,-0.22318 -0.4408,-0.57756 -0.59657,-0.78751 -0.15576,-0.20995 -0.32658,-0.38173 -0.37959,-0.38173 -0.1097,0 -0.35729,0.84426 -0.43171,1.47209 -0.0333,0.2809 -0.006,0.54287 0.0807,0.78869 0.191,0.5385 0.16894,1.42809 -0.0487,1.96534 -0.19437,0.47973 -0.28816,1.04845 -0.39895,2.41933 -0.0393,0.4858 -0.11846,1.00706 -0.17599,1.15838 -0.0708,0.1861 -0.0875,0.49906 -0.0516,0.96736 0.15086,1.97035 0.14791,2.18396 -0.0387,2.79526 -0.0988,0.32386 -0.21205,0.89599 -0.25158,1.27139 -0.0395,0.3754 -0.16735,1.04988 -0.28404,1.49885 -0.11669,0.44898 -0.23755,1.0964 -0.26857,1.43872 -0.0873,0.96301 0.003,0.92645 -2.47316,1.00592 -0.67086,0.0215 -1.56341,0.0632 -1.98345,0.0925 -0.59591,0.0417 -0.81771,0.0256 -1.00944,-0.0732 -0.58186,-0.29969 -1.78782,-0.40884 -3.971789,-0.35946 -2.67943,0.0606 -4.583426,0.17622 -4.798734,0.29145 -0.09378,0.0502 -0.239251,0.0914 -0.323257,0.0916 -0.08401,1.7e-4 -0.320191,0.11145 -0.524854,0.24722 -0.267036,0.17716 -0.522043,0.26293 -0.903063,0.30373 -0.394565,0.0423 -0.630923,0.1246 -0.920152,0.32058 -0.920714,0.62387 -1.279039,0.8241 -1.689385,0.94404 -0.422967,0.12362 -0.553583,0.21976 -1.925894,1.41751 -0.441231,0.38511 -1.297501,1.56481 -1.297501,1.7876 0,0.0695 -0.08517,0.24575 -0.189269,0.39169 -0.172997,0.24253 -0.188748,0.35574 -0.183211,1.31684 0.0061,1.05049 0.149416,1.90259 0.41965,2.49423 0.08334,0.18247 0.121456,0.57571 0.122309,1.26179 7.75e-4,0.62446 0.04005,1.07157 0.10515,1.19711 0.11645,0.22456 9.860318,5.91636 10.06307,5.87826 0.106632,-0.02 0.178369,-0.12054 0.345987,-0.48468 0.03194,-0.0694 0.143522,-0.16952 0.247951,-0.22247 0.186398,-0.0945 0.32484,-0.28496 0.510876,-0.7027 0.258335,-0.58008 0.65225,-0.66345 1.074811,-0.22748 l 0.26886,0.27741 v 1.42739 c 0.692245,4.30007 -4.335285,-1.57828 -7.65338,-2.70241 z m 7.317212,2.68197 c 0,-1.06621 -0.01351,-1.16561 -0.182902,-1.34591 -0.100597,-0.10709 -0.210901,-0.19469 -0.24512,-0.19469 -0.03422,0 -0.197241,0.24144 -0.36227,0.53654 -0.168578,0.30145 -0.372781,0.55557 -0.466031,0.57994 -0.236265,0.0618 -0.442482,0.56801 -0.295399,0.72513 1.114015,0.7462 1.549954,1.15531 1.551722,-0.30101 z"
           style="fill:#f3ea13;fill-opacity:1;stroke:#f3ea13;stroke-width:0.08411964;stroke-opacity:1" />
        <path
           inkscape:connector-curvature="0"
           id="path1569"
           d="m 100.30704,175.14557 -0.434317,-0.24132 -0.02102,-1.30249 c -0.02309,-1.43063 -0.04114,-1.50167 -0.444793,-1.75115 -0.456852,-0.28235 -0.731125,-0.15006 -1.062637,0.51252 -0.09539,0.19065 -0.280944,0.42864 -0.412337,0.52886 -0.131393,0.10022 -0.289688,0.27905 -0.351766,0.3974 l -0.112868,0.21517 -5.011304,-2.90178 c -2.756217,-1.59598 -5.050399,-2.92508 -5.098182,-2.95355 -0.06182,-0.0368 -0.10277,-0.36848 -0.141968,-1.14972 -0.03713,-0.73999 -0.08893,-1.1752 -0.158894,-1.3349 -0.214815,-0.49035 -0.337784,-1.34068 -0.342578,-2.36893 -0.0042,-0.90256 0.0096,-1.02884 0.13869,-1.26953 0.07885,-0.147 0.22322,-0.43264 0.320824,-0.63476 0.268247,-0.5555 0.941816,-1.3513 1.68016,-1.98504 0.831325,-0.71355 1.037398,-0.85206 1.509304,-1.01442 0.208686,-0.0718 0.689732,-0.32424 1.068993,-0.56099 0.919674,-0.5741 0.935097,-0.58125 1.411491,-0.65434 0.227682,-0.0349 0.624443,-0.16683 0.88169,-0.29309 0.257247,-0.12626 0.633095,-0.27536 0.835217,-0.33132 0.528715,-0.1464 1.978658,-0.23624 4.576991,-0.2836 2.517194,-0.0459 3.326254,0.009 4.102474,0.28067 0.46255,0.16161 0.46516,0.16173 1.95553,0.0942 2.26585,-0.1027 3.14488,-0.17213 3.34202,-0.264 0.21778,-0.10148 0.29838,-0.29876 0.35464,-0.86799 0.0236,-0.23887 0.13094,-0.83162 0.23852,-1.31722 0.10758,-0.4856 0.24188,-1.19105 0.29845,-1.56766 0.0566,-0.37662 0.1622,-0.91723 0.23475,-1.20135 0.16371,-0.6412 0.17958,-1.00068 0.10634,-2.40797 -0.0478,-0.91759 -0.0394,-1.21383 0.0474,-1.67044 0.058,-0.30527 0.12439,-0.79557 0.14753,-1.08957 0.0703,-0.89233 0.21831,-1.78211 0.36691,-2.20497 0.20606,-0.58638 0.24255,-1.31291 0.097,-1.93108 -0.084,-0.35662 -0.10764,-0.63933 -0.0802,-0.95787 0.0423,-0.49046 0.28389,-1.35396 0.37879,-1.35396 0.0323,0 0.32046,0.34493 0.64028,0.7665 0.31983,0.42158 0.631,0.78222 0.69151,0.80142 0.0605,0.0192 0.58019,0.0466 1.15486,0.0609 0.57466,0.0143 1.0724,0.043 1.10608,0.0639 0.14798,0.0915 0.88784,0.16395 1.12866,0.11058 0.37048,-0.0821 0.69462,-0.47404 0.95053,-1.14935 0.23169,-0.6114 0.43934,-0.98799 0.54476,-0.98799 0.11515,0 0.32768,0.41223 0.39552,0.76719 0.0352,0.18441 0.11101,0.57652 0.16836,0.87136 0.0574,0.29483 0.10429,0.74365 0.10429,0.99737 0,0.42114 -0.0211,0.49197 -0.24259,0.81353 l -0.24258,0.35222 0.0333,0.72175 c 0.0183,0.39696 0.0953,1.05249 0.1711,1.45673 0.51755,2.75996 0.58542,3.74299 0.29542,4.27958 -0.73407,1.3583 -0.93225,3.23019 -0.84853,8.01482 0.0875,5.00109 0.11881,4.57442 -0.50002,6.81537 -0.21311,0.77174 -0.45869,1.71241 -0.54573,2.09038 l -0.15826,0.68721 -7.39028,4.27398 c -4.06465,2.35069 -7.40218,4.27311 -7.41673,4.27205 -0.0145,-0.001 -0.22189,-0.11053 -0.46076,-0.24326 z"
           style="fill:#ffffff;fill-opacity:1;stroke:#ffffff;stroke-width:0.06681738;stroke-opacity:1" />
      </g>
      <path
         inkscape:connector-curvature="0"
         id="path1932"
         d="m 103.26531,145.77153 5.06141,3.6035 0.27562,-4.16773 -1.40316,0.74334 -1.76231,0.18375 -2.12145,-0.36286 z"
         style="fill:#e8d7fb;stroke:none;stroke-width:0.26458332px;stroke-linecap:butt;stroke-linejoin:miter;stroke-opacity:1;fill-opacity:1" />
      <path
         sodipodi:nodetypes="cccccccc"
         inkscape:connector-curvature="0"
         id="path1922"
         d="m 86.661186,162.74686 c -0.801808,1.57021 -1.066878,3.06955 -1.066878,3.06955 l 3.454939,1.98065 0.555845,-0.37344 0.731046,-1.53634 -1.202713,-0.53454 -1.77066,-1.9377 z"
         style="fill:#e8d7fb;fill-opacity:1;stroke:none;stroke-width:0.26458332px;stroke-linecap:butt;stroke-linejoin:miter;stroke-opacity:1" />
      <path
         sodipodi:nodetypes="ccccccsccssccccscccscccccsscccscccc"
         inkscape:connector-curvature="0"
         id="path1680"
         d="m 89.308369,167.57576 c 0,-0.0472 0.159777,-0.23722 0.324427,-0.45293 0.29117,-0.38145 0.46374,-0.89619 0.35787,-1.06748 -0.0288,-0.0465 -0.20647,-0.11068 -0.39489,-0.14252 -0.20628,-0.0349 -0.42777,-0.14976 -0.55671,-0.28881 -0.11777,-0.12701 -0.560649,-0.58146 -0.98418,-1.00987 -0.449926,-0.45512 -0.850478,-0.94984 -0.963508,-1.19004 -0.205595,-0.43691 -0.312319,-0.50696 -0.391635,-0.25706 -0.02689,0.0847 -0.185302,0.36577 -0.352026,0.62455 -0.166725,0.25879 -0.303135,0.54696 -0.303135,0.64039 0,0.33567 -0.566374,1.78331 -0.697704,1.78331 -0.03302,0 -0.107611,-0.0573 -0.165754,-0.12738 -0.08502,-0.10245 -0.06989,-0.18535 0.07732,-0.42354 0.21996,-0.3559 0.437714,-1.0428 0.439006,-1.38483 5.2e-4,-0.14614 0.125604,-0.41788 0.304369,-0.66141 0.258199,-0.35174 0.562054,-0.9323 0.562054,-1.07389 0,-0.0229 -0.187484,-0.26752 -0.416631,-0.5437 -0.229146,-0.27618 -0.555491,-0.79425 -0.72521,-1.15127 -0.189706,-0.39905 -0.412633,-0.72513 -0.57868,-0.84644 -0.177893,-0.12996 -0.270097,-0.27125 -0.270097,-0.41388 0,-0.11911 -0.05842,-0.35638 -0.129823,-0.52727 -0.153404,-0.36715 -0.165749,-0.60335 -0.03573,-0.6837 0.151633,-0.0937 0.240769,0.0607 0.39444,0.68345 0.117724,0.47705 0.188594,0.60858 0.38172,0.70845 0.133299,0.0689 0.310749,0.28476 0.405206,0.49283 0.09243,0.20361 0.260303,0.57774 0.373054,0.83141 0.112751,0.25367 0.323481,0.56773 0.468289,0.69792 0.348333,0.31317 0.575155,0.63896 0.913975,1.31278 0.20678,0.41122 0.526635,0.80169 1.22036,1.48977 0.84516,0.83827 0.98229,0.94047 1.3574,1.01161 0.63765,0.12093 1.25763,0.52254 0.80666,0.52254 -0.1992,0 -0.31393,0.13712 -0.39389,0.47074 -0.10693,0.44617 -0.62909,1.08051 -0.8933,1.08521 -0.0595,0.001 -0.421898,0.31311 -0.421898,0.26591 z"
         style="fill:#f3ea13;fill-opacity:1;stroke-width:0.08654859" />
      <path
         inkscape:connector-curvature="0"
         id="path1682"
         d="m 94.770052,167.80181 c -0.4614,-0.2672 -0.59477,-0.50607 -0.28255,-0.50607 0.0945,0 0.40597,0.12273 0.69213,0.27273 0.41375,0.21689 0.50045,0.29664 0.42341,0.38947 -0.14259,0.17182 -0.32606,0.13743 -0.83299,-0.15613 z"
         style="fill:#f3ea13;fill-opacity:1;stroke-width:0.08654859" />
      <path
         sodipodi:nodetypes="ccccccccccccccccccscccccccccccscccscccccccsccscccccsccsccccscccccccccccccsccccccsccccccccccccccccccccccccccccccssccccccccscccccsccccccccccscsccccccscccccccscccccccccscsscc"
         inkscape:connector-curvature="0"
         id="path1916"
         d="m 100.12805,147.58003 c 0.0324,-0.15022 0.12536,-0.67026 0.20655,-1.15562 0.0812,-0.48536 0.19084,-0.95812 0.24364,-1.05058 0.36371,-0.63691 0.4558,-1.4835 0.23507,-2.16123 -0.18949,-0.58183 -0.21297,-1.12821 -0.0672,-1.56286 0.0727,-0.21678 0.15983,-0.86691 0.1936,-1.44473 0.083,-1.42074 0.20161,-2.28159 0.35527,-2.57872 0.21254,-0.41102 0.26694,-1.22547 0.10832,-1.62189 -0.16836,-0.42076 -0.17219,-0.74356 -0.0154,-1.29699 0.0666,-0.23519 0.17337,-0.67345 0.2372,-0.97392 l 0.11606,-0.54629 0.32275,-0.0269 c 0.30063,-0.025 0.3569,0.009 0.8214,0.50427 0.27426,0.29215 0.55038,0.6306 0.61358,0.75212 0.0632,0.12151 0.18251,0.24757 0.26512,0.28013 0.25077,0.0988 0.97624,0.22843 1.22178,0.21824 0.74593,-0.031 0.98723,-0.0255 1.36574,0.0315 0.40217,0.0604 0.43181,0.051 0.6898,-0.21806 0.27446,-0.28627 0.52886,-0.86507 0.52886,-1.2032 0,-0.28322 0.3477,-0.7386 0.61914,-0.81088 0.20959,-0.0558 0.29001,-0.0178 0.61817,0.29225 0.3681,0.34778 0.3789,0.37294 0.44589,1.03743 0.0377,0.37455 0.12833,0.79641 0.20127,0.93747 0.168,0.32485 0.17644,1.28188 0.014,1.59271 -0.0652,0.12481 -0.22883,0.33173 -0.3636,0.45981 l -0.24504,0.23286 0.10972,0.52355 c 0.0604,0.28796 0.1105,0.66075 0.11146,0.82846 9.7e-4,0.1677 0.0633,0.45135 0.13851,0.63034 0.0752,0.17899 0.16548,0.628 0.2006,0.9978 0.0351,0.3698 0.1285,0.84257 0.20754,1.05058 0.20907,0.55021 0.1479,1.70008 -0.11405,2.14405 -0.24097,0.4084 -0.59733,1.52449 -0.69744,2.1843 -0.0421,0.27735 -0.0982,0.89194 -0.12461,1.36574 -0.0468,0.83853 -0.14527,2.4818 -0.34054,2.4818 -0.19425,0 -0.0335,-1.61586 -0.0326,-2.24661 5.9e-4,-0.35825 -0.019,-0.88367 0.0484,-1.13698 0.14558,-0.54706 0.0675,-0.6855 -0.25684,-0.45543 -0.53927,0.38254 -0.67876,0.44696 -1.26824,0.58578 -0.55868,0.13157 -0.72419,0.13559 -1.60724,0.0391 -0.54142,-0.0592 -1.28209,-0.20063 -1.64592,-0.31431 -0.56539,-0.17667 -0.73328,-0.27651 -1.15562,-0.68721 -0.468,-0.45512 -0.62487,-0.76645 -0.3862,-0.76645 0.0593,0 0.31465,0.20939 0.56731,0.4653 0.37215,0.37694 0.56311,0.49769 1.00568,0.63594 0.58644,0.18318 1.93596,0.41159 2.43182,0.41159 1.01634,0 2.28486,-0.73684 2.66167,-1.54609 0.10986,-0.23594 0.20012,-0.48125 0.20057,-0.54513 4.2e-4,-0.0639 0.0827,-0.24859 0.18271,-0.41044 0.132,-0.21359 0.19946,-0.50441 0.246,-1.0605 0.0555,-0.66347 0.0424,-0.81552 -0.0979,-1.13407 -0.0997,-0.22653 -0.16196,-0.55742 -0.16196,-0.86115 0,-0.27128 -0.0726,-0.71087 -0.16151,-0.97684 -0.15173,-0.45428 -0.32176,-1.67582 -0.27204,-1.95441 0.0124,-0.0693 0.0333,-0.23118 0.0465,-0.35965 0.0132,-0.12847 0.1309,-0.34511 0.26149,-0.48141 0.30699,-0.32042 0.38732,-1.00313 0.16795,-1.42733 -0.0825,-0.15953 -0.16385,-0.56588 -0.19017,-0.94991 -0.0404,-0.58913 -0.0764,-0.70565 -0.29403,-0.95363 -0.13642,-0.15537 -0.29998,-0.28249 -0.36346,-0.28249 -0.18481,0 -0.34443,0.33461 -0.45836,0.96085 -0.0887,0.48761 -0.16055,0.64185 -0.44047,0.94553 -0.37273,0.40436 -0.58897,0.44611 -1.40471,0.27116 -0.32283,-0.0692 -0.45716,-0.0671 -0.54843,0.008 -0.0753,0.0624 -0.25633,0.082 -0.48008,0.0515 -0.19756,-0.0268 -0.58162,-0.078 -0.85348,-0.11369 l -0.49429,-0.0649 -0.64227,-0.79843 c -0.82584,-1.02665 -0.90836,-1.03293 -1.10393,-0.084 -0.081,0.39292 -0.18359,0.80895 -0.22801,0.92451 -0.0874,0.22724 -0.0582,0.39056 0.10523,0.58832 0.18294,0.22149 0.21681,1.36834 0.0531,1.79951 -0.079,0.20788 -0.17043,0.4049 -0.20336,0.43785 -0.0329,0.0329 -0.0598,0.23348 -0.0598,0.44566 0,0.21217 -0.0444,0.51788 -0.0987,0.67936 -0.0542,0.16149 -0.12455,0.74746 -0.15618,1.30217 -0.033,0.57956 -0.12238,1.21515 -0.21002,1.49428 -0.15063,0.4798 -0.15025,0.49263 0.0314,1.05057 0.26887,0.82613 0.24973,1.61428 -0.0559,2.30095 -0.13301,0.29886 -0.30223,0.9209 -0.38511,1.41561 -0.19381,1.15692 -0.20055,1.17664 -0.40235,1.17664 -0.15115,0 -0.16551,-0.0344 -0.11401,-0.27316 z m 4.6202,-4.09446 c -0.096,-0.0388 -0.31784,-0.20576 -0.49299,-0.37095 -0.23614,-0.22272 -0.30194,-0.33887 -0.25457,-0.44935 0.0732,-0.17073 0.0726,-0.31374 -0.003,-0.61146 -0.0631,-0.24886 0.0894,-0.70498 0.21054,-0.63011 0.0479,0.0296 0.0622,0.19044 0.0333,0.37221 -0.0434,0.27186 -0.0217,0.34071 0.14459,0.45718 0.27262,0.19096 0.53529,0.17103 0.68526,-0.0519 l 0.12716,-0.18911 0.21462,0.19939 c 0.39762,0.3694 0.88831,0.0378 0.77568,-0.52421 -0.0291,-0.14493 -0.0518,-0.35058 -0.0507,-0.45701 0.002,-0.18838 -0.004,-0.18988 -0.22976,-0.0565 -0.12751,0.0753 -0.31859,0.26929 -0.42462,0.43105 -0.19235,0.29341 -0.19331,0.29376 -0.41894,0.14808 -0.12439,-0.0803 -0.33962,-0.25706 -0.4783,-0.3928 -0.13867,-0.13572 -0.33723,-0.27997 -0.44124,-0.32055 -0.21234,-0.0829 -0.23738,-0.2789 -0.0992,-0.77655 0.0989,-0.35605 0.30397,-0.38336 0.26198,-0.0348 l -0.0263,0.2184 0.76753,-0.0316 0.76753,-0.0316 0.18051,0.30592 c 0.1687,0.28593 0.18342,0.29351 0.22531,0.11605 0.0998,-0.4231 0.21353,-0.14525 0.22597,0.55245 0.015,0.83679 -0.0175,0.90741 -0.61072,1.32914 -0.48977,0.34823 -0.79762,0.37027 -1.14061,0.0817 -0.24063,-0.20247 -0.49033,-0.27778 -0.48767,-0.14708 0.005,0.25556 0.62678,0.69338 0.98437,0.69338 0.34105,0 1.1155,-0.37682 1.1155,-0.54275 0,-0.15504 0.16132,-0.25405 0.2574,-0.15796 0.0435,0.0435 0.007,0.18512 -0.0864,0.33954 -0.2807,0.46157 -1.20491,0.74542 -1.73229,0.53203 z m 0.5973,-2.30752 c 0.0751,-0.15822 0.19271,-0.30923 0.26142,-0.33559 0.25002,-0.0959 0.0209,-0.19866 -0.39333,-0.17631 -0.2336,0.0126 -0.44162,0.0398 -0.46226,0.0605 -0.0582,0.0582 0.29143,0.73908 0.37953,0.73908 0.043,0 0.13957,-0.12945 0.21464,-0.28765 z m 1.60735,-1.29482 c -0.18078,-0.19976 -0.17611,-0.37507 0.0147,-0.54767 0.15919,-0.14406 0.49357,-0.18248 0.65086,-0.0748 0.32549,0.22287 0.11932,0.77614 -0.28919,0.77614 -0.13045,0 -0.29977,-0.0692 -0.37628,-0.1537 z m -4.04294,-0.14386 c -0.21231,-0.19676 -0.22076,-0.22807 -0.1077,-0.39922 0.16594,-0.25119 0.40353,-0.27132 0.67566,-0.0572 0.24171,0.19013 0.28912,0.40538 0.12534,0.56915 -0.16269,0.16269 -0.44584,0.11668 -0.6933,-0.11266 z m 1.67743,-0.12138 c -0.0611,-0.0988 0.43938,-0.42076 0.65473,-0.42121 0.23428,-4.8e-4 0.64719,0.242 0.64719,0.38005 0,0.157 -0.0921,0.15717 -0.29911,5.2e-4 -0.0898,-0.0678 -0.23879,-0.1234 -0.33124,-0.1234 -0.0925,0 -0.24151,0.0555 -0.33124,0.1234 -0.19125,0.14466 -0.27021,0.15409 -0.34033,0.0406 z m 3.37416,-2.91653 c -0.0675,-0.13006 -0.24435,-0.32596 -0.3929,-0.43532 -0.24475,-0.18018 -0.26586,-0.23032 -0.22504,-0.53465 0.0247,-0.18469 0.16138,-0.52297 0.30358,-0.75172 0.1422,-0.22875 0.28132,-0.50664 0.30915,-0.61753 0.0608,-0.24209 0.24542,-0.41177 0.36662,-0.33686 0.11431,0.0707 0.1131,0.35486 -0.002,0.42588 -0.0589,0.0365 -0.0423,0.10749 0.0487,0.20809 0.10753,0.11882 0.11809,0.19042 0.0475,0.32231 -0.12861,0.24032 -0.12163,0.25103 0.18241,0.28035 0.28918,0.0278 0.36323,0.17476 0.11245,0.22306 -0.0818,0.0158 -0.2245,0.10441 -0.31711,0.19702 -0.13947,0.13947 -0.16341,0.25592 -0.13944,0.67818 0.0327,0.57709 -0.0949,0.72504 -0.29413,0.34119 z m -5.7229,-0.0178 c -0.0828,-0.13389 0.0513,-0.5843 0.1932,-0.6489 0.0974,-0.0444 0.0392,-0.0767 -0.19854,-0.11043 -0.36595,-0.052 -0.47522,-0.28005 -0.15598,-0.32557 0.20142,-0.0287 0.32354,-0.41039 0.18493,-0.57802 -0.0576,-0.0696 -0.0162,-0.14272 0.13784,-0.24362 0.15386,-0.10077 0.19348,-0.17075 0.13169,-0.23254 -0.12329,-0.12329 -0.11077,-0.47597 0.0167,-0.47033 0.26552,0.0117 0.7354,1.0561 0.7354,1.63447 0,0.12282 -0.84754,1.05035 -0.95977,1.05035 -0.0214,0 -0.0598,-0.034 -0.0855,-0.0754 z"
         style="fill:#f3ea13;fill-opacity:1;stroke-width:0.0840458" />
      <path
         inkscape:connector-curvature="0"
         id="path1942"
         d="m 105.17795,142.66824 c -0.0223,0 -0.0445,0 -0.0668,0 -0.006,0 -0.0113,0.001 -0.0167,0 -0.009,-0.002 -0.0165,-0.006 -0.0251,-0.008 -0.003,-6.9e-4 -0.006,0.001 -0.008,0 -0.004,-0.002 -0.005,-0.007 -0.008,-0.008 -0.005,-0.003 -0.0281,0.003 -0.0334,0 -0.004,-0.002 -0.005,-0.007 -0.008,-0.008 -0.0108,-0.003 -0.0223,0 -0.0334,0 -0.003,0 -0.006,0.002 -0.008,0 -0.002,-0.002 0.002,-0.007 0,-0.008 -0.005,-0.003 -0.0282,0.003 -0.0334,0 -0.009,-0.004 -0.0161,-0.0122 -0.0251,-0.0167 -0.002,-0.001 -0.006,0 -0.008,0 -0.003,0 -0.006,0 -0.008,0 -0.0167,0 -0.0334,0 -0.0501,0 -0.006,0 -0.0114,0.002 -0.0167,0 -0.006,-0.002 -0.0107,-0.007 -0.0167,-0.008 -0.008,-0.002 -0.0172,0.002 -0.0251,0 -0.009,-0.002 -0.0164,-0.007 -0.0251,-0.008 -0.005,-9.3e-4 -0.0326,8.2e-4 -0.0334,0 -0.002,-0.002 0.002,-0.007 0,-0.008 -0.005,-0.002 -0.0111,0 -0.0167,0 -0.006,0 -0.0453,0.002 -0.0501,0 -0.006,-0.002 -0.0115,-0.005 -0.0167,-0.008 -0.003,-0.002 -0.005,-0.007 -0.008,-0.008 -0.004,-0.001 -0.0297,0.002 -0.0334,0 -0.004,-0.002 -0.005,-0.007 -0.008,-0.008 -0.005,-0.002 -0.0117,0.002 -0.0167,0 -0.004,-0.002 -0.005,-0.007 -0.008,-0.008 -0.0206,-0.0103 0.008,0.0242 -0.025,-0.008 -0.0143,-0.0144 -8e-4,-0.0255 -0.0167,-0.0334 -0.005,-0.002 -0.0117,0.002 -0.0167,0 -0.004,-0.002 -0.005,-0.007 -0.008,-0.008 -0.002,-0.001 -0.006,0.001 -0.008,0 -0.004,-0.002 -0.005,-0.007 -0.008,-0.008 -0.002,-10e-4 -0.006,0.001 -0.008,0 -0.004,-0.002 -0.005,-0.007 -0.008,-0.008 -0.002,-0.001 -0.006,0.001 -0.008,0 -0.0148,-0.007 -0.002,-0.009 -0.0167,-0.0167 -0.005,-0.002 -0.0142,0.005 -0.0167,0 -0.002,-0.005 0.002,-0.0117 0,-0.0167 -0.001,-0.002 -0.006,0 -0.008,0 -0.006,0 -0.0114,0.002 -0.0167,0 -0.006,-0.002 -0.0187,-0.0219 -0.0251,-0.025 -0.002,-0.001 -0.006,0.002 -0.008,0 -0.002,-0.002 0.002,-0.006 0,-0.008 -2.7e-4,-3.4e-4 -0.0303,0 -0.0334,0 -0.0139,0 -0.0278,0 -0.0418,0 -0.005,0 -0.0204,-0.002 -0.0251,0 -0.006,0.002 -0.0108,0.006 -0.0167,0.008 -0.005,0.002 -0.0117,-0.002 -0.0167,0 -0.007,0.004 -0.01,0.0132 -0.0167,0.0167 -0.002,0.001 -0.006,-0.002 -0.008,0 -0.004,0.004 -0.005,0.0115 -0.008,0.0167 8e-4,0.0165 -0.0123,0.004 -0.0167,0.008 -0.004,0.004 0.005,0.0142 0,0.0167 -0.005,0.002 -0.0117,-0.002 -0.0167,0 -0.005,0.002 0.004,0.0128 0,0.0167 -0.002,0.002 -0.006,-0.002 -0.008,0 -0.002,0.002 0.001,0.006 0,0.008 -0.0191,0.0382 0.003,-0.0354 -0.0167,0.025 -0.003,0.008 0.003,0.0447 0,0.0501 -0.002,0.004 -0.007,0.005 -0.008,0.008 -0.003,0.007 0.003,0.0184 0,0.0251 -0.001,0.002 -0.006,-0.002 -0.008,0 -0.002,0.002 0,0.006 0,0.008 0,0.0223 0,0.0445 0,0.0668 0,0.0501 0,0.10023 0,0.15034 0,0.009 -0.001,0.056 0,0.0585 0.002,0.004 0.007,0.005 0.008,0.008 0.001,0.002 -0.002,0.006 0,0.008 0.002,0.002 0.006,-0.002 0.008,0 0.002,0.002 -0.002,0.006 0,0.008 0.002,0.002 0.006,-0.001 0.008,0 0.004,0.002 0.005,0.007 0.008,0.008 0.005,0.002 0.0117,-0.002 0.0167,0 0.002,0.001 -0.002,0.006 0,0.008 0.002,0.002 0.006,0 0.008,0 0.003,0.003 0.006,0.005 0.008,0.008 0.003,0.005 0.005,0.0115 0.008,0.0167 0.002,0.003 0.006,0.006 0.008,0.008 0.003,0.003 0.005,0.007 0.008,0.008 0.005,0.002 0.0117,-0.002 0.0167,0 0.004,0.002 0.005,0.007 0.008,0.008 0.002,10e-4 0.006,-0.001 0.008,0 0.004,0.002 0.005,0.007 0.008,0.008 0.002,0.001 0.006,-0.001 0.008,0 0.007,0.004 0.01,0.0132 0.0167,0.0167 0.002,0.001 0.006,-0.001 0.008,0 0.0185,0.009 0.003,0.005 0.008,0.0167 0.005,0.01 0.0174,0.0116 0.0251,0.0167 0.007,0.005 0.0186,0.0185 0.0251,0.025 0.003,0.003 0.006,0.006 0.008,0.008 0.003,0.003 0.007,0.005 0.008,0.008 10e-4,0.002 -0.002,0.006 0,0.008 0.002,0.002 0.006,-0.001 0.008,0 0.0128,0.006 0.007,0.0149 0.0167,0.0251 0.0326,0.0326 0.004,-0.002 0.0251,0.008 0.002,0.001 0.0239,0.0228 0.0251,0.0251 10e-4,0.002 -0.002,0.006 0,0.008 0.002,0.002 0.006,-0.001 0.008,0 0.004,0.002 0.0333,0.0332 0.0334,0.0334 0.002,0.002 -0.001,0.006 0,0.008 0.001,0.002 0.0228,0.0239 0.0251,0.0251 0.002,10e-4 0.006,-0.001 0.008,0 0.006,0.003 0.0194,0.0232 0.0251,0.025 0.005,0.002 0.0121,-0.003 0.0167,0 0.0167,0.0112 -5.3e-4,0.0249 0.0167,0.0334 0.007,0.003 0.0184,-0.003 0.0251,0 0.004,0.002 0.005,0.007 0.008,0.008 0.002,0.001 0.006,-0.001 0.008,0 0.004,0.002 0.005,0.007 0.008,0.008 0.005,0.002 0.0114,-0.002 0.0167,0 0.004,10e-4 0.005,0.007 0.008,0.008 0.002,0.001 0.006,0 0.008,0 0.006,0.003 0.0115,0.005 0.0167,0.008 0.003,0.002 0.005,0.007 0.008,0.008 0.008,0.002 0.0167,0 0.0251,0 0.003,0 0.007,-0.002 0.008,0 0.002,0.005 -0.004,0.0128 0,0.0167 0.004,0.004 0.0114,-0.002 0.0167,0 0.004,0.001 0.005,0.007 0.008,0.008 0.004,0.002 0.0361,-0.002 0.0418,0 0.004,0.001 0.005,0.007 0.008,0.008 0.005,0.002 0.0114,-0.002 0.0167,0 0.0473,0.0237 -0.0125,-0.003 0.0334,0.008 0.006,0.002 0.0108,0.006 0.0167,0.008 0.005,0.002 0.0127,-0.004 0.0167,0 0.002,0.002 -0.002,0.006 0,0.008 0.004,0.004 0.0117,-0.002 0.0167,0 0.004,0.002 0.005,0.007 0.008,0.008 0.009,0.004 0.0178,-0.007 0.0334,0.008 0.004,0.004 0.005,0.0115 0.008,0.0167 0.002,0.003 0.006,0.006 0.008,0.008 0.003,0.003 0.005,0.007 0.008,0.008 0.002,0.001 0.006,-10e-4 0.008,0 0.004,0.002 0.005,0.007 0.008,0.008 0.005,0.003 0.0282,-0.003 0.0334,0 0.004,0.002 0.005,0.007 0.008,0.008 0.002,0.001 0.006,-0.001 0.008,0 0.007,0.004 0.01,0.0132 0.0167,0.0167 0.002,0.001 0.006,-0.001 0.008,0 0.004,0.002 0.005,0.007 0.008,0.008 0.005,0.002 0.0308,-0.002 0.0334,0 0.0446,0.0297 -0.0306,0.006 0.0251,0.0251 0.003,8.7e-4 0.006,0 0.008,0 0.0139,0 0.0278,0 0.0418,0 0.006,0 0.0114,-0.002 0.0167,0 0.004,10e-4 0.005,0.007 0.008,0.008 0.002,0.001 0.029,0 0.0334,0 0.0334,0 0.0668,0 0.10022,0 0.0195,0 0.039,0 0.0585,0 0.005,0 0.0203,0.002 0.0251,0 0.0339,-0.0113 -5.2e-4,-0.005 0.0334,-0.0251 0.008,-0.005 0.0169,-0.005 0.0251,-0.008 0.01,-0.004 0.0423,-0.0237 0.0501,-0.0251 0.0137,-0.002 0.0278,0 0.0418,0 0.006,0 0.0114,0.002 0.0167,0 0.004,-0.001 0.005,-0.007 0.008,-0.008 0.005,-0.003 0.0428,0.002 0.0501,0 0.0303,-0.0101 0.006,-0.004 0.0251,-0.0167 0.005,-0.003 0.0123,-0.004 0.0167,-0.008 0.004,-0.004 0.004,-0.0123 0.008,-0.0167 0.004,-0.004 0.0115,-0.005 0.0167,-0.008 0.0191,-0.0127 -0.005,-0.007 0.025,-0.0167 0.003,-8.8e-4 0.006,0.001 0.008,0 0.004,-0.002 0.005,-0.007 0.008,-0.008 0.002,-0.001 0.006,0 0.008,0 0.004,0 0.0479,0.001 0.0501,0 0.003,-0.001 0.0137,-0.0152 0.0167,-0.0167 0.008,-0.004 0.0175,-0.004 0.0251,-0.008 0.007,-0.004 0.0104,-0.012 0.0167,-0.0167 0.005,-0.004 0.0111,-0.006 0.0167,-0.008 0.006,-0.003 0.0108,-0.006 0.0167,-0.008 0.005,-0.002 0.0114,0.002 0.0167,0 0.006,-0.002 0.0107,-0.007 0.0167,-0.008 0.005,-0.001 0.0111,0 0.0167,0 0.0136,0 0.0211,10e-4 0.0334,-0.008 0.009,-0.007 0.0156,-0.018 0.0251,-0.0251 0.002,-0.002 0.006,0 0.008,0 0.008,-0.003 0.0182,-0.003 0.025,-0.008 0.008,-0.006 0.01,-0.018 0.0167,-0.0251 0.002,-0.002 0.006,0 0.008,0 0.006,-0.003 0.0123,-0.004 0.0167,-0.008 0.002,-0.002 -10e-4,-0.006 0,-0.008 0.004,-0.007 0.0132,-0.01 0.0167,-0.0167 0.001,-0.002 0,-0.0373 0,-0.0418 0,-0.003 -0.002,-0.006 0,-0.008 0.007,-0.009 0.0167,-0.0167 0.0251,-0.0251 0.006,-0.006 0.0126,-0.01 0.0167,-0.0167 0.005,-0.008 0.006,-0.0167 0.008,-0.0251 0.008,-0.0139 0.0156,-0.0285 0.0251,-0.0418 0.005,-0.006 0.0111,-0.0111 0.0167,-0.0167 0.008,-0.008 0.0175,-0.016 0.0251,-0.0251 0.006,-0.008 0.01,-0.018 0.0167,-0.025 0.007,-0.007 0.0172,-0.0104 0.0251,-0.0167 0.006,-0.005 0.0106,-0.0118 0.0167,-0.0167 0.0518,-0.0414 0.003,9.8e-4 0.0418,-0.0251 0.003,-0.002 0.006,-0.006 0.008,-0.008 0.003,-0.003 0.006,-0.005 0.008,-0.008 0.003,-0.005 0.004,-0.0123 0.008,-0.0167 0.002,-0.002 0.006,0 0.008,0 0.0189,0 0.0118,0.002 0.0334,-0.025 0.004,-0.005 0.005,-0.0114 0.008,-0.0167 0.005,-0.009 0.0122,-0.0161 0.0167,-0.0251 0.001,-0.002 0,-0.0442 0,-0.0501 0,-0.003 -0.002,-0.0289 0,-0.0334 0.006,-0.0178 0.0115,-0.0198 0.0251,-0.0334 0.003,-0.003 0.005,-0.006 0.008,-0.008 0.005,-0.003 0.0115,-0.005 0.0167,-0.008 0.003,-0.002 0.005,-0.007 0.008,-0.008 0.002,-0.001 0.006,0.002 0.008,0 0.002,-0.002 0,-0.006 0,-0.008 0,-0.003 0,-0.006 0,-0.008 0,-0.0108 -0.002,-0.0528 0,-0.0585 0.0346,-0.10397 0.008,0.0373 0.0418,-0.16705 10e-4,-0.008 0,-0.0167 0,-0.025 0,-0.0157 -0.002,-0.0341 0,-0.0501 0.002,-0.0251 0.006,-0.05 0.008,-0.0752 0.001,-0.0139 0,-0.0278 0,-0.0418 0,-0.022 0.004,-0.0469 -0.008,-0.0668 -0.004,-0.007 -0.0108,-0.0115 -0.0167,-0.0167 -0.0251,-0.022 -0.0532,-0.0412 -0.0752,-0.0668 -0.009,-0.0106 -0.016,-0.0228 -0.0251,-0.0334 -0.008,-0.009 -0.0167,-0.0167 -0.0251,-0.025 -0.008,-0.008 -0.0158,-0.0177 -0.0251,-0.0251 -0.004,-0.0184 -0.0172,-0.004 -0.0251,-0.008 -0.004,-0.002 -0.005,-0.007 -0.008,-0.008 -0.002,-0.001 -0.006,0 -0.008,0 -0.004,0 -0.0479,0.001 -0.0501,0 -0.008,-0.004 -0.0147,-0.019 -0.0167,-0.0251 -7.9e-4,-0.003 8e-4,-0.006 0,-0.008 -0.004,-0.0123 -0.0175,-0.0334 -0.0334,-0.0334 -0.003,0 -10e-4,0.006 0,0.008 0.0103,0.0206 0.008,-0.003 0.008,0.0167 0,0.0223 0,0.0446 0,0.0668 0,0.006 0.002,0.0387 0,0.0418 -0.002,0.004 -0.006,0.006 -0.008,0.008 -0.01,0.01 -0.0116,0.01 -0.0167,0.0251 -0.002,0.005 0,0.0267 0,0.0334 0,0.003 0.002,0.007 0,0.008 -0.005,0.002 -0.0117,-0.002 -0.0167,0 -0.002,0.001 0.002,0.006 0,0.008 -0.002,0.002 -0.007,-0.002 -0.008,0 -0.0134,0.0223 -0.0246,0.0655 -0.0334,0.0919 -0.003,0.008 -0.004,0.0172 -0.008,0.0251 -0.002,0.004 -0.006,0.006 -0.008,0.008 -0.003,0.003 -0.005,0.006 -0.008,0.008 -0.005,0.003 -0.0123,0.004 -0.0167,0.008 -0.003,0.003 0.003,0.036 0,0.0418 -0.002,0.004 -0.006,0.006 -0.008,0.008 -0.008,0.008 -0.0167,0.0167 -0.0251,0.025 -0.006,0.006 -0.01,0.0132 -0.0167,0.0167 -0.002,7.7e-4 -0.0437,0.008 -0.0501,0.0167 -0.0237,0.0316 0.009,0.0206 -0.025,0.0334 -0.0826,0.031 -0.0198,0.002 -0.0835,0.0334 -0.006,0.003 -0.0123,0.004 -0.0167,0.008 -0.002,0.002 0.001,0.006 0,0.008 -0.002,0.004 -0.006,0.006 -0.008,0.008 -0.003,0.003 -0.005,0.007 -0.008,0.008 -0.002,0.001 -0.042,0 -0.0501,0 -0.003,0 -0.006,-0.002 -0.008,0 -0.004,0.004 -0.003,0.0132 -0.008,0.0167 -0.0167,0.0111 -0.047,0.0171 -0.0668,0.025 -0.0267,0.0107 -0.0497,0.029 -0.0752,0.0418 -0.0161,0.008 -0.0424,0.0114 -0.0585,0.0167 -0.006,0.002 -0.0111,0.006 -0.0167,0.008 -0.0111,0.003 -0.0225,0.005 -0.0334,0.008 -0.006,0.002 -0.0111,0.006 -0.0167,0.008 -0.006,0.003 -0.0115,0.005 -0.0167,0.008 -0.003,0.002 -0.005,0.007 -0.008,0.008 -0.002,0.001 -0.0499,0 -0.0585,0 -0.003,0 -0.006,0 -0.008,0 -0.003,0 -0.006,-10e-4 -0.008,0 -0.004,0.002 -0.005,0.007 -0.008,0.008 -0.0169,0.008 -0.0272,0.006 -0.0418,0.0167 -0.006,0.005 -0.0104,0.012 -0.0167,0.0167 -0.0146,0.0109 -0.0249,0.008 -0.0418,0.0167 -0.008,0.004 -0.0252,0.0293 -0.0334,0.0334 -0.002,10e-4 -0.006,0 -0.008,0 -0.003,0 -0.006,0 -0.008,0 -0.004,0 -0.0312,10e-4 -0.0334,0 -0.004,-0.002 -0.007,-0.005 -0.008,-0.008 -0.001,-0.002 0,-0.006 0,-0.008 0,-0.003 0,-0.006 0,-0.008 0,-0.0167 0,-0.0334 0,-0.0501 0,-0.006 0,-0.0111 0,-0.0167 0,-0.003 0.002,-0.01 0,-0.008 -0.0125,0.006 -0.0223,0.0167 -0.0334,0.0251 z"
         style="fill:#e8d7fb;stroke:none;stroke-width:0.26458332px;stroke-linecap:butt;stroke-linejoin:miter;stroke-opacity:1;fill-opacity:1" />
    </g>
    <g
       id="g2007">
      <path
         style="fill:#a866d4;stroke-width:0.08322188"
         d="m 99.275065,154.02784 c -1.641197,-0.13333 -2.991054,-0.39711 -3.839793,-0.75035 -1.5677,-0.65246 -1.973118,-0.75534 -3.150845,-0.7996 -0.908467,-0.0341 -1.294759,-0.006 -2.409933,0.17832 -1.92996,0.31823 -3.208055,0.40543 -4.364669,0.2978 -0.529489,-0.0493 -0.995835,-0.12272 -1.036324,-0.16321 -0.0714,-0.0714 0.451829,-1.02797 0.618688,-1.13109 0.312122,-0.1929 0.715885,-1.6072 0.613952,-2.15054 -0.02904,-0.1548 -0.02135,-0.30047 0.01709,-0.3237 0.03844,-0.0232 0.481839,-0.0857 0.985331,-0.13876 0.503492,-0.0531 1.458463,-0.20389 2.122158,-0.33513 3.102763,-0.61354 4.105229,-0.56266 6.459068,0.32788 1.088081,0.41166 2.105993,0.56891 4.15172,0.64137 2.773992,0.0983 5.990422,-0.3823 8.416842,-1.25756 0.65791,-0.23732 0.82457,-0.25859 0.91242,-0.11644 0.0329,0.0533 0.10752,0.39967 0.16577,0.7698 0.0583,0.37013 0.14567,0.89766 0.19425,1.1723 0.18918,1.0695 -0.0573,2.18422 -0.39115,2.51728 -0.33228,0.33155 -3.12259,1.08536 -5.22026,1.2652 -1.13744,0.0975 -3.01957,0.0959 -4.244315,-0.004 z m -0.115895,-4.86211 c -0.32928,-0.1578 -0.972066,-0.53311 -1.428414,-0.83401 -1.505875,-0.99292 -2.162416,-1.23651 -4.14097,-1.53635 -1.860995,-0.28203 -3.60478,-0.75263 -3.840281,-1.03639 -0.111232,-0.13403 0.334392,-0.49535 0.823959,-0.66808 0.181844,-0.0642 0.615164,-0.30865 0.962935,-0.54333 0.49528,-0.33421 0.68092,-0.4167 0.856613,-0.38066 0.123366,0.0253 0.734039,0.10368 1.35705,0.17415 1.735837,0.19637 2.653497,0.49069 4.040477,1.29588 0.404541,0.23485 1.110027,0.56973 1.567747,0.74419 0.744054,0.28358 0.830274,0.33775 0.813824,0.51127 -0.0101,0.10675 -0.057,0.60604 -0.10415,1.10954 -0.09379,1.00112 -0.156347,1.35568 -0.249353,1.41316 -0.03341,0.0207 -0.330157,-0.0916 -0.659437,-0.24937 z"
         id="path2023"
         inkscape:connector-curvature="0"
         sodipodi:nodetypes="cccccccccccsccccscccccsccccccsccccc" />
      <path
         style="fill:#d66398;stroke-width:0.08322188"
         d="m 100.02406,153.48527 c -1.72454,-0.10631 -3.558113,-0.4064 -5.034922,-0.82405 -1.87591,-0.5305 -2.425304,-0.62302 -3.699477,-0.62301 -0.828322,2e-5 -1.472167,0.053 -2.209276,0.18166 -0.8137,0.14208 -1.388279,0.18286 -2.638085,0.18724 -1.061175,0.004 -1.62867,-0.0253 -1.689689,-0.0862 -0.06701,-0.067 -0.01293,-0.19526 0.199854,-0.47402 0.548111,-0.71806 0.799045,-1.45425 0.799045,-2.34423 v -0.34123 l 1.019468,-0.10114 c 0.560708,-0.0556 1.543766,-0.21025 2.184574,-0.34363 2.864744,-0.59626 3.973956,-0.53894 6.251014,0.32303 1.19601,0.45275 2.104041,0.58803 4.32342,0.64412 3.061474,0.0774 5.396944,-0.26336 8.217814,-1.19891 0.57463,-0.19059 0.92839,-0.26949 0.97942,-0.21846 0.0439,0.0439 0.1334,0.39563 0.1988,0.78154 0.0654,0.38591 0.1581,0.92635 0.206,1.20099 0.12235,0.70148 0.005,1.81509 -0.12458,1.92055 -0.36319,0.29621 -3.07838,0.92113 -4.86393,1.15129 -0.99291,0.12798 -3.24984,0.21811 -4.11948,0.1645 z m -1.582676,-5.1198 c -0.731548,-0.37221 -1.650252,-0.83808 -2.041563,-1.03526 -0.830382,-0.41843 -2.172657,-0.80931 -3.408008,-0.99245 -1.376718,-0.20409 -2.995987,-0.66872 -2.995987,-0.85965 0,-0.12045 0.191953,-0.25113 0.55923,-0.38071 0.185244,-0.0654 0.604569,-0.29688 0.931835,-0.5145 l 0.595027,-0.39567 1.058306,0.1051 c 2.13152,0.21167 3.081732,0.48751 4.583518,1.33059 0.487051,0.27342 1.203871,0.61643 1.592933,0.76226 0.898405,0.33672 0.928255,0.36492 0.830515,0.78454 -0.0426,0.18309 -0.0788,0.53886 -0.0804,0.79061 -0.004,0.63041 -0.08773,1.08188 -0.200667,1.08188 -0.05203,0 -0.693139,-0.30454 -1.424689,-0.67674 z"
         id="path2021"
         inkscape:connector-curvature="0"
         sodipodi:nodetypes="ccccccssccccccssccccccccsccccccccscc" />
      <path
         style="fill:#dbc329;stroke-width:0.08322188"
         d="m 98.983788,153.19631 c -1.048311,-0.10009 -2.377536,-0.31822 -3.037598,-0.49847 -0.320405,-0.0875 -0.93265,-0.25459 -1.360547,-0.37132 -1.688676,-0.46068 -2.279481,-0.54285 -3.583848,-0.49846 -0.667713,0.0227 -1.494898,0.0955 -1.838188,0.16164 -1.483073,0.28591 -4.056113,0.36891 -4.200373,0.13549 -0.02195,-0.0355 0.06824,-0.22877 0.200418,-0.42947 0.354081,-0.53765 0.555998,-1.27761 0.577237,-2.1154 l 0.01062,-0.41893 1.019468,-0.10114 c 0.560708,-0.0556 1.543766,-0.21025 2.184574,-0.34363 2.864744,-0.59626 3.973956,-0.53894 6.251014,0.32303 1.19601,0.45275 2.104041,0.58803 4.32342,0.64412 3.061475,0.0774 5.396945,-0.26336 8.217815,-1.19891 0.57497,-0.1907 0.92838,-0.2695 0.97947,-0.21842 0.15678,0.15678 0.43504,1.41357 0.437,2.40476 0.002,1.16912 0.0411,1.28786 -1.35896,1.6907 -1.20383,0.34639 -2.75754,0.65002 -4.08495,0.79831 -1.18253,0.1321 -3.54267,0.15009 -4.736572,0.0361 z m -0.631431,-5.08772 c -2.802646,-1.44747 -3.407956,-1.67185 -5.110878,-1.89448 -1.306271,-0.17077 -2.995988,-0.63063 -2.995988,-0.81535 0,-0.0404 0.102988,-0.12456 0.228861,-0.18707 0.125873,-0.0625 0.537432,-0.31875 0.914577,-0.56943 l 0.685717,-0.45576 1.061943,0.10546 c 2.135484,0.21208 3.084636,0.48747 4.587153,1.33096 0.487051,0.27342 1.203871,0.61643 1.592933,0.76226 0.389063,0.14582 0.749865,0.30709 0.801785,0.35839 0.15024,0.14843 -0.161812,2.04897 -0.336425,2.04897 -0.05797,0 -0.701322,-0.30777 -1.429678,-0.68395 z"
         id="path2019"
         inkscape:connector-curvature="0"
         sodipodi:nodetypes="sccccccsccccccccccsccscccccccsc" />
      <path
         style="fill:#f6a327;stroke-width:0.08322188"
         d="m 98.983788,153.19631 c -1.048311,-0.10009 -2.377536,-0.31822 -3.037598,-0.49847 -0.320405,-0.0875 -0.93265,-0.25459 -1.360547,-0.37132 -1.688676,-0.46068 -2.279481,-0.54285 -3.583848,-0.49846 -0.667713,0.0227 -1.494898,0.0955 -1.838188,0.16164 -1.486053,0.28649 -4.056158,0.36884 -4.200921,0.1346 -0.02225,-0.036 0.07056,-0.22925 0.20623,-0.42947 0.135673,-0.20021 0.24736,-0.40578 0.248193,-0.45682 8.33e-4,-0.0511 0.07913,-0.19148 0.173998,-0.31208 0.159327,-0.20256 0.221222,-0.21941 0.811413,-0.2209 0.718519,-0.002 1.657518,-0.12757 3.426862,-0.45891 1.774364,-0.33228 2.664309,-0.23942 4.818204,0.50271 1.718545,0.59214 2.9872,0.75026 5.959024,0.74273 1.87892,-0.005 2.43785,-0.0355 3.4121,-0.18743 1.51097,-0.23567 2.75909,-0.51875 3.97328,-0.90113 0.53751,-0.16928 1.08915,-0.3046 1.12379,-0.27008 0.0346,0.0345 0.0797,0.36771 0.0797,0.83229 0,0.99204 -0.007,0.99876 -1.39017,1.39669 -1.20383,0.34639 -2.75754,0.65002 -4.08495,0.79831 -1.18253,0.1321 -3.54267,0.15009 -4.736572,0.0361 z m 0.624164,-2.21198 c -2.121186,-0.10082 -3.490433,-0.36739 -5.3262,-1.03694 l -0.998662,-0.36424 -1.33155,0.006 c -1.146306,0.005 -1.513027,0.0424 -2.636022,0.26789 -1.33486,0.26803 -3.465485,0.49199 -3.560919,0.3743 -0.02925,-0.0361 -0.03898,-0.29184 -0.02162,-0.56837 l 0.03156,-0.50278 1.012951,-0.10051 c 0.557123,-0.0553 1.537249,-0.20963 2.178057,-0.34301 2.864744,-0.59626 3.973956,-0.53894 6.251014,0.32303 1.215089,0.45997 2.103237,0.58973 4.401386,0.64304 2.107503,0.0489 3.483073,-0.0634 5.302603,-0.43292 0.97842,-0.1987 2.75561,-0.69497 3.29328,-0.91962 0.54147,-0.22624 0.61648,-0.1463 0.72228,0.76969 l 0.0595,0.51535 -0.81903,0.25393 c -1.06188,0.32924 -2.75229,0.71171 -3.86292,0.87404 -0.88892,0.12991 -3.3675,0.30757 -3.90513,0.27989 -0.1602,-0.008 -0.515971,-0.0257 -0.790603,-0.0387 z m -1.255595,-2.87574 c -2.802646,-1.44747 -3.407956,-1.67185 -5.110878,-1.89448 -1.322138,-0.17285 -2.995988,-0.6308 -2.995988,-0.81967 0,-0.0428 0.210949,-0.17761 0.468774,-0.29968 0.464452,-0.21991 0.473852,-0.2208 1.019468,-0.097 0.302882,0.0687 1.133111,0.2014 1.844953,0.29479 1.59157,0.20879 2.210511,0.41323 3.606107,1.19106 0.594899,0.33157 1.454386,0.75755 1.909973,0.94662 0.455587,0.18906 0.857644,0.39612 0.893459,0.46012 0.09059,0.16187 -0.0793,0.90216 -0.20703,0.90216 -0.0575,0 -0.700482,-0.30777 -1.428838,-0.68395 z m 1.380428,-0.78848 c -0.481037,-0.17157 -1.588879,-0.71032 -2.294373,-1.11576 -1.295039,-0.74426 -1.958572,-0.95624 -3.61438,-1.15474 -1.112567,-0.13337 -2.240391,-0.34015 -2.289608,-0.41979 -0.0229,-0.0371 0.09439,-0.15145 0.260645,-0.2542 0.297376,-0.18379 0.319357,-0.18513 1.352874,-0.0825 2.123101,0.2108 3.075569,0.48761 4.575799,1.32981 0.487051,0.27342 1.203871,0.61643 1.592933,0.76226 0.389063,0.14582 0.750365,0.30709 0.802885,0.35839 0.0532,0.052 0.0767,0.21296 0.053,0.36373 -0.0423,0.26881 -0.14431,0.31819 -0.439755,0.21281 z"
         id="path2017"
         inkscape:connector-curvature="0"
         sodipodi:nodetypes="ccccccccccscccccsccccccccsccccccccccccccccccsccccccscccccccccccccc" />
      <path
         style="fill:#e65665;stroke-width:0.08322188"
         d="m 98.983788,153.19631 c -1.048311,-0.10009 -2.377536,-0.31822 -3.037598,-0.49847 -0.320405,-0.0875 -0.93265,-0.25459 -1.360547,-0.37132 -1.688676,-0.46068 -2.279481,-0.54285 -3.583848,-0.49846 -0.667713,0.0227 -1.494898,0.0953 -1.838188,0.16121 -1.035449,0.19888 -2.648899,0.32263 -3.405776,0.26122 -0.38861,-0.0315 -0.736121,-0.0756 -0.772246,-0.0979 -0.08633,-0.0534 0.11475,-0.42301 0.407484,-0.74909 l 0.233609,-0.26022 1.123495,-0.0476 c 0.720009,-0.0305 1.616645,-0.14026 2.496656,-0.30562 1.904091,-0.35777 2.754037,-0.29619 5.159756,0.37381 2.547072,0.70938 5.138369,0.97308 7.818545,0.79565 2.14981,-0.14232 4.83029,-0.64782 6.40651,-1.20818 0.46524,-0.1654 0.54723,-0.0866 0.51848,0.637 -0.0253,0.63749 -0.0218,0.5929 -1.34481,0.97357 -1.20383,0.34639 -2.75754,0.65002 -4.08495,0.79831 -1.18253,0.1321 -3.54267,0.15009 -4.736572,0.0361 z m 0.624164,-2.21198 c -2.121186,-0.10082 -3.490433,-0.36739 -5.3262,-1.03694 l -0.998662,-0.36424 -1.33155,0.006 c -1.146306,0.005 -1.513027,0.0424 -2.636022,0.26789 -1.33486,0.26803 -3.465485,0.49199 -3.560919,0.3743 -0.02925,-0.0361 -0.03898,-0.29184 -0.02162,-0.56837 l 0.03156,-0.50278 1.012951,-0.10051 c 0.557123,-0.0553 1.537249,-0.20963 2.178057,-0.34301 2.864744,-0.59626 3.973956,-0.53894 6.251014,0.32303 1.215089,0.45997 2.103237,0.58973 4.401386,0.64304 2.107503,0.0489 3.483073,-0.0634 5.302603,-0.43292 0.97842,-0.1987 2.75561,-0.69497 3.29328,-0.91962 0.54147,-0.22624 0.61648,-0.1463 0.72228,0.76969 l 0.0595,0.51535 -0.81903,0.25393 c -1.06188,0.32924 -2.75229,0.71171 -3.86292,0.87404 -0.88892,0.12991 -3.3675,0.30757 -3.90513,0.27989 -0.1602,-0.008 -0.515971,-0.0257 -0.790603,-0.0387 z m -1.255595,-2.87574 c -2.802646,-1.44747 -3.407956,-1.67185 -5.110878,-1.89448 -1.306271,-0.17077 -2.995988,-0.63063 -2.995988,-0.81535 0,-0.13118 0.421263,-0.30299 0.692533,-0.28244 0.145486,0.011 0.620293,0.0909 1.055127,0.17743 0.434834,0.0866 1.146381,0.20052 1.581215,0.25322 1.178353,0.14282 1.809313,0.35668 3.370486,1.1424 0.778125,0.39163 1.748132,0.85259 2.155572,1.02438 0.407441,0.17178 0.775239,0.37386 0.817328,0.44907 0.09849,0.17599 1.67e-4,0.62972 -0.13643,0.62972 -0.05757,0 -0.700609,-0.30777 -1.428965,-0.68395 z m 1.380428,-0.78848 c -0.481037,-0.17157 -1.588879,-0.71032 -2.294373,-1.11576 -1.295039,-0.74426 -1.958572,-0.95624 -3.61438,-1.15474 -1.112567,-0.13337 -2.240391,-0.34015 -2.289608,-0.41979 -0.0229,-0.0371 0.09439,-0.15145 0.260645,-0.2542 0.297376,-0.18379 0.319357,-0.18513 1.352874,-0.0825 2.123101,0.2108 3.075569,0.48761 4.575799,1.32981 0.487051,0.27342 1.203871,0.61643 1.592933,0.76226 0.389063,0.14582 0.750365,0.30709 0.802885,0.35839 0.0532,0.052 0.0767,0.21296 0.053,0.36373 -0.0423,0.26881 -0.14431,0.31819 -0.439755,0.21281 z"
         id="path2015"
         inkscape:connector-curvature="0"
         sodipodi:nodetypes="cccccccsccccsccccccccccsccccccccccccccccccsccccccsccccccccccccc" />
      <path
         style="fill:#3fa8b7;stroke-width:0.08322188"
         d="m 98.858955,152.86185 c -0.935142,-0.0897 -2.88089,-0.537 -3.735429,-0.85865 -1.911854,-0.71962 -2.932539,-0.79075 -5.34424,-0.3724 -1.169683,0.2029 -1.824557,0.26759 -3.049919,0.30129 -0.858225,0.0236 -1.56041,0.0244 -1.56041,0.002 0,-0.0226 0.09372,-0.20883 0.208272,-0.41378 l 0.208273,-0.37264 1.144083,-0.0493 c 0.739023,-0.0318 1.630247,-0.14077 2.517244,-0.3077 1.903768,-0.35829 2.753333,-0.29681 5.159756,0.37339 2.547072,0.70938 5.138368,0.97308 7.818545,0.79565 2.14981,-0.14232 4.83029,-0.64782 6.40651,-1.20818 0.44195,-0.15712 0.4971,-0.10364 0.45739,0.44351 -0.0154,0.2121 -0.0297,0.42818 -0.0317,0.48019 -0.007,0.17913 -2.2839,0.7423 -4.20641,1.04042 -1.2615,0.19561 -4.62324,0.27775 -5.991975,0.1464 z m 0.748998,-1.87752 c -2.121187,-0.10082 -3.490434,-0.36739 -5.326201,-1.03694 l -0.998662,-0.36424 -1.33155,0.006 c -1.146306,0.005 -1.513027,0.0424 -2.636022,0.26789 -1.33486,0.26803 -3.465485,0.49199 -3.560919,0.3743 -0.02925,-0.0361 -0.03898,-0.29184 -0.02162,-0.56837 l 0.03156,-0.50278 1.012951,-0.10051 c 0.557123,-0.0553 1.537249,-0.20963 2.178057,-0.34301 2.864744,-0.59626 3.973956,-0.53894 6.251014,0.32303 1.215089,0.45997 2.103237,0.58973 4.401382,0.64304 2.107507,0.0489 3.483077,-0.0634 5.302607,-0.43292 0.97842,-0.1987 2.75561,-0.69497 3.29328,-0.91962 0.54147,-0.22624 0.61648,-0.0962 0.72228,0.8198 l 0.0595,0.46524 -0.81903,0.25393 c -1.06188,0.32924 -2.75229,0.71171 -3.86292,0.87404 -0.88892,0.12991 -3.3675,0.30757 -3.90513,0.27989 -0.1602,-0.008 -0.515967,-0.0257 -0.790607,-0.0387 z m -0.915442,-2.97274 c -0.549264,-0.28975 -1.298261,-0.70166 -1.664437,-0.91534 -0.877246,-0.51193 -1.67591,-0.75532 -3.164124,-0.96425 -1.854355,-0.26034 -3.335475,-0.61777 -3.321483,-0.80154 0.01582,-0.20782 0.470329,-0.22408 1.384368,-0.0495 0.51708,0.0987 1.277194,0.22075 1.689142,0.27112 1.138518,0.13921 1.783656,0.35963 3.328875,1.13732 0.778125,0.39163 1.751821,0.85414 2.163769,1.02781 0.683202,0.28802 0.748992,0.33572 0.748992,0.54299 0,0.12497 -0.0375,0.2387 -0.0832,0.25273 -0.0458,0.014 -0.532615,-0.21156 -1.08188,-0.50131 z m 1.040272,-0.69148 c -0.481035,-0.17157 -1.588877,-0.71032 -2.294371,-1.11576 -1.295039,-0.74426 -1.958572,-0.95624 -3.61438,-1.15474 -1.112567,-0.13337 -2.240391,-0.34015 -2.289608,-0.41979 -0.0229,-0.0371 0.09439,-0.15145 0.260645,-0.2542 0.297376,-0.18379 0.319357,-0.18513 1.352874,-0.0825 2.123101,0.2108 3.075569,0.48761 4.575799,1.32981 0.487051,0.27342 1.203871,0.61643 1.592933,0.76226 0.389058,0.14582 0.750365,0.30709 0.802885,0.35839 0.0532,0.052 0.0767,0.21296 0.053,0.36373 -0.0423,0.26881 -0.14431,0.31819 -0.439757,0.21281 z"
         id="path2013"
         inkscape:connector-curvature="0"
         sodipodi:nodetypes="ccscscccccsccccccccccscccccccccccccccccccccsccsccccccccccccccc" />
      <path
         style="fill:#ee5c24;stroke-width:0.08322188"
         d="m 98.858955,152.86185 c -0.935142,-0.0897 -2.88089,-0.537 -3.735429,-0.85865 -1.911854,-0.71962 -2.932539,-0.79075 -5.34424,-0.3724 -1.169683,0.2029 -1.824557,0.26759 -3.049919,0.30129 -0.858225,0.0236 -1.56041,0.0244 -1.56041,0.002 0,-0.0226 0.09372,-0.20883 0.208272,-0.41378 l 0.208273,-0.37264 1.144083,-0.0493 c 0.739023,-0.0318 1.630247,-0.14077 2.517244,-0.3077 1.903768,-0.35829 2.753333,-0.29681 5.159756,0.37339 2.547072,0.70938 5.138369,0.97308 7.818545,0.79565 2.14981,-0.14232 4.83029,-0.64782 6.40651,-1.20818 0.44195,-0.15712 0.60985,-0.2331 0.57014,0.31405 -0.0154,0.2121 -0.14245,0.55764 -0.14445,0.60965 -0.007,0.17913 -2.2839,0.7423 -4.20641,1.04042 -1.2615,0.19561 -4.62324,0.27775 -5.991975,0.1464 z m -0.166444,-4.85026 c -0.549264,-0.28975 -1.298261,-0.70166 -1.664437,-0.91534 -0.877246,-0.51193 -1.67591,-0.75532 -3.164124,-0.96425 -1.854355,-0.26034 -3.335475,-0.61777 -3.321483,-0.80154 0.01582,-0.20782 0.470329,-0.22408 1.384368,-0.0495 0.51708,0.0987 1.277194,0.22075 1.689142,0.27112 1.138518,0.13921 1.783656,0.35963 3.328875,1.13732 0.778125,0.39163 1.751821,0.85414 2.163769,1.02781 0.683203,0.28802 0.748997,0.33572 0.748997,0.54299 0,0.12497 -0.03745,0.2387 -0.08322,0.25273 -0.04577,0.014 -0.53262,-0.21156 -1.081885,-0.50131 z"
         id="path2011"
         inkscape:connector-curvature="0"
         sodipodi:nodetypes="ccscscccccscccccccccccsccsccc" />
      <path
         style="fill:#db3937;stroke-width:0.08322188"
         d="m 98.858955,152.86185 c -0.935142,-0.0897 -2.88089,-0.537 -3.735429,-0.85865 -1.911854,-0.71962 -2.932539,-0.79075 -5.34424,-0.3724 -1.169683,0.2029 -1.824557,0.26759 -3.049919,0.30129 -0.925825,0.0255 -1.56041,0.0118 -1.56041,-0.0337 0,-0.20441 0.236705,-0.27636 0.91128,-0.277 0.888417,-8.6e-4 1.893874,-0.11438 3.28984,-0.37144 2.243838,-0.4132 3.099475,-0.36784 4.870064,0.25819 2.27541,0.80452 3.666442,1.02759 6.408089,1.02759 2.73885,0 5.35532,-0.40439 7.73785,-1.19592 0.3423,-0.11372 0.81263,-0.24984 0.63683,-0.19112 0.25441,-0.27561 0.16016,0.2725 0.14888,0.41789 -0.0157,0.22317 -2.16839,0.81507 -4.32087,1.14885 -1.2615,0.19561 -4.62324,0.27775 -5.991975,0.1464 z m -0.166444,-4.85014 c -0.549264,-0.28982 -1.298261,-0.70178 -1.664437,-0.91546 -0.873664,-0.50984 -1.675486,-0.75526 -3.13868,-0.96068 -1.783294,-0.25036 -3.122115,-0.55638 -3.348465,-0.76535 -0.123886,-0.11438 0.11821,-0.0885 0.83743,0.0894 0.361022,0.0893 1.21815,0.24106 1.904731,0.33721 2.067243,0.28951 2.450838,0.42795 4.535592,1.63692 0.389062,0.22562 0.997622,0.53679 1.352355,0.69149 0.354733,0.15471 0.64497,0.31197 0.64497,0.34947 0,0.11818 -0.100769,0.0767 -1.123496,-0.46299 z"
         id="path2009"
         inkscape:connector-curvature="0"
         sodipodi:nodetypes="ccscsccssscccccccscccccscc" />
    </g>
    <text
       xml:space="preserve"
       style="font-style:normal;font-variant:normal;font-weight:normal;font-stretch:normal;font-size:8.10305214px;line-height:1.25;font-family:'Franklin Gothic Heavy';-inkscape-font-specification:'Franklin Gothic Heavy, ';letter-spacing:0px;word-spacing:0px;fill:#ffffff;fill-opacity:1;stroke:none;stroke-width:0.20257631"
       x="73.953262"
       y="139.33936"
       id="text2027"><tspan
         sodipodi:role="line"
         id="tspan2025"
         x="73.953262"
         y="139.33936"
         style="fill:#ffffff;fill-opacity:1;stroke-width:0.20257631">specio</tspan></text>
  </g>
</svg>
